<svg version="1.2" xmlns="http://www.w3.org/2000/svg" viewBox="0 0 512 512" width="512" height="512">
	<title>2889182-ai</title>
	<defs>
		<linearGradient id="g1" x1="240.5" y1="207.8" x2="385.3" y2="375.6" gradientUnits="userSpaceOnUse">
			<stop offset="0" stop-color="#69cca3"/>
			<stop offset="1" stop-color="#1d7fba"/>
		</linearGradient>
		<linearGradient id="g2" x1="287.1" y1="253.6" x2="389.1" y2="436.6" gradientUnits="userSpaceOnUse">
			<stop offset="0" stop-color="#ffffff"/>
			<stop offset="1" stop-color="#000000"/>
		</linearGradient>
		<linearGradient id="g3" x1="282.8" y1="305.8" x2="195.3" y2="446.7" gradientUnits="userSpaceOnUse">
			<stop offset="0" stop-color="#69cca3"/>
			<stop offset="1" stop-color="#1d7fba"/>
		</linearGradient>
		<linearGradient id="g4" x1="230" y1="542.3" x2="44" y2="354.4" gradientUnits="userSpaceOnUse">
			<stop offset="0" stop-color="#ffffff"/>
			<stop offset="1" stop-color="#000000"/>
		</linearGradient>
		<linearGradient id="g5" x1="363.1" y1="53.8" x2="349.3" y2="239.6" gradientUnits="userSpaceOnUse">
			<stop offset="0" stop-color="#69cca3"/>
			<stop offset="1" stop-color="#1d7fba"/>
		</linearGradient>
		<linearGradient id="g6" x1="379.9" y1="77.5" x2="337" y2="269.8" gradientUnits="userSpaceOnUse">
			<stop offset="0" stop-color="#ffffff"/>
			<stop offset="1" stop-color="#000000"/>
		</linearGradient>
		<linearGradient id="g7" x1="267.4" y1="55.5" x2="337.6" y2="179.3" gradientUnits="userSpaceOnUse">
			<stop offset="0" stop-color="#ffffff"/>
			<stop offset="1" stop-color="#000000"/>
		</linearGradient>
		<linearGradient id="g8" x1="112.7" y1="90.9" x2="297.4" y2="90.9" gradientUnits="userSpaceOnUse">
			<stop offset="0" stop-color="#ffa758"/>
			<stop offset="1" stop-color="#ff5e6a"/>
		</linearGradient>
		<linearGradient id="g9" x1="218.6" y1="73.1" x2="319.4" y2="249.6" gradientUnits="userSpaceOnUse">
			<stop offset="0" stop-color="#ffffff"/>
			<stop offset="1" stop-color="#000000"/>
		</linearGradient>
		<linearGradient id="g10" x1="159.2" y1="112.3" x2="289.3" y2="212.6" gradientUnits="userSpaceOnUse">
			<stop offset="0" stop-color="#ffffff"/>
			<stop offset="1" stop-color="#000000"/>
		</linearGradient>
		<linearGradient id="g11" x1="257.8" y1="302.9" x2="368" y2="224.8" gradientUnits="userSpaceOnUse">
			<stop offset="0" stop-color="#3d339b"/>
			<stop offset="1" stop-color="#7555ab"/>
		</linearGradient>
		<linearGradient id="g12" x1="424.2" y1="347.5" x2="250.6" y2="442.9" gradientUnits="userSpaceOnUse">
			<stop offset="0" stop-color="#ffffff"/>
			<stop offset="1" stop-color="#000000"/>
		</linearGradient>
		<linearGradient id="g13" x1="408.6" y1="291.7" x2="369.9" y2="417.9" gradientUnits="userSpaceOnUse">
			<stop offset="0" stop-color="#ffffff"/>
			<stop offset="1" stop-color="#000000"/>
		</linearGradient>
	</defs>
	<style>
		tspan { white-space:pre } 
		.s0 { fill: url(#g1) } 
		.s1 { mix-blend-mode: overlay;fill: url(#g2) } 
		.s2 { fill: url(#g3) } 
		.s3 { mix-blend-mode: overlay;fill: url(#g4) } 
		.s4 { fill: url(#g5) } 
		.s5 { mix-blend-mode: overlay;fill: url(#g6) } 
		.s6 { mix-blend-mode: overlay;fill: url(#g7) } 
		.s7 { fill: url(#g8) } 
		.s8 { mix-blend-mode: overlay;fill: url(#g9) } 
		.s9 { mix-blend-mode: overlay;fill: url(#g10) } 
		.s10 { fill: url(#g11) } 
		.s11 { mix-blend-mode: overlay;fill: url(#g12) } 
		.s12 { mix-blend-mode: overlay;fill: url(#g13) } 
	</style>
	<g id="BACKGROUND">
	</g>
	<g id="OBJECTS">
		<g id="&lt;Group&gt;">
			<g id="&lt;Group&gt;">
				<g id="&lt;Group&gt;">
					<g id="&lt;Group&gt;">
						<path id="&lt;Path&gt;" class="s0" d="m297.4 279.2v214.4q-6 0-11.9-0.3q-1.2-0.1-2.5-0.2q-1.1-0.1-2.1-0.1q-2.1-0.2-4.1-0.4q-1.9-0.2-3.8-0.4q-2.4-0.3-4.8-0.6q-1.7-0.2-3.5-0.5q-1.7-0.3-3.4-0.5q-4.7-0.8-9.3-1.9q-1.3-0.2-2.7-0.5q-1.4-0.4-2.9-0.7q-1.4-0.4-2.8-0.7q-0.2-0.1-0.5-0.2q-1.4-0.3-2.8-0.7q-2.1-0.6-4.2-1.2q-0.1 0-0.1-0.1q-2-0.5-3.8-1.1q-2-0.7-4-1.3q-1.6-0.6-3.3-1.2q-0.6-0.2-1.2-0.5q-1.6-0.5-3.2-1.1q-1.9-0.8-3.8-1.5q-2.1-0.9-4.3-1.8q-1.1-0.5-2.2-1q-1.2-0.5-2.3-1.1q-1.7-0.7-3.5-1.6q-6.8-3.2-13.3-7q-1.7-1-3.5-2q-5.2-3.1-10.2-6.5c-31.3-21.2-56.7-50.4-73.2-84.8q-1.6-3.2-3.1-6.6c-11.6-26.4-18.1-55.6-18.1-86.3z"/>
						<path id="&lt;Path&gt;" class="s1" d="m297.4 476.7v16.9q-6 0-11.9-0.3q-1.2-0.1-2.5-0.2q-1.1-0.1-2.1-0.1q-2.1-0.2-4.1-0.4q-1.9-0.2-3.8-0.4q-2.4-0.3-4.8-0.6q-1.7-0.2-3.5-0.5q-1.7-0.3-3.4-0.5q-4.7-0.8-9.3-1.9q-1.3-0.2-2.7-0.5q-1.4-0.4-2.9-0.7q-1.4-0.4-2.8-0.7q-0.2-0.1-0.5-0.2q-1.4-0.3-2.8-0.7q-2.1-0.6-4.2-1.2q-0.1 0-0.1-0.1q-2-0.5-3.8-1.1q-2-0.7-4-1.3q-1.6-0.6-3.3-1.2q-0.6-0.2-1.2-0.5q-1.6-0.5-3.2-1.1q-1.9-0.8-3.8-1.5q-2.1-0.9-4.3-1.8q-1.1-0.5-2.2-1q-1.2-0.5-2.3-1.1q-1.7-0.7-3.5-1.6q-6.8-3.2-13.3-7q-1.7-1-3.5-2q-5.2-3.1-10.2-6.5c0.9-18.8 4.2-36 9.2-51.6c26.1-82.3 98.3-121 108.5-126.1h2.3c0.1 0.7 0 146.9 0 197.5z"/>
						<path id="&lt;Compound Path&gt;" class="s2" d="m295.1 279.2c-12.4 6.2-112 59.8-117.6 177.6c-31.4-21.1-56.8-50.4-73.3-84.7c68.4-86.5 177.4-92.5 190.9-92.9z"/>
						<path id="&lt;Path&gt;" class="s3" d="m297.4 476.7v16.9c-21.3 0-41.9-3.1-61.3-8.9c-21.1-6.3-40.9-15.8-58.7-27.8c-31.3-21.2-56.7-50.4-73.2-84.8q-1.6-3.2-3.1-6.6c-11.6-26.4-18.1-55.6-18.1-86.3h80.2h0.2q-34.9 155.5 134 197.5z"/>
					</g>
					<g id="&lt;Group&gt;">
						<path id="&lt;Path&gt;" class="s4" d="m351.5 148.6c0 22.6-4.1 45.1-12.3 66.5c-8.9 23.2-22.7 44.9-41.4 63.7l-0.4 0.4c-57.8-57.8-69.3-144.6-34.3-213.8c8.6-17.1 20-33.1 34.3-47.4c14 14 25.3 29.7 33.8 46.4c13.6 26.4 20.3 55.3 20.3 84.2z"/>
						<path id="&lt;Path&gt;" class="s5" d="m297.8 278.8c-37.3-72.9-21.5-159.2 33.4-214.4c13.6 26.4 20.3 55.3 20.3 84.2c0 47.1-17.9 94.2-53.7 130.2z"/>
						<path id="&lt;Path&gt;" class="s6" d="m339.2 215.1c-8.9 23.2-22.7 44.9-41.4 63.7l-0.4 0.4c-57.8-57.8-69.3-144.6-34.3-213.8c3.7 44.5 20.2 105 76.1 149.7z"/>
					</g>
					<g id="&lt;Group&gt;">
						<path id="&lt;Path&gt;" class="s7" d="m297.4 278.6v0.6c-59.5 0-112.5-28.2-146.3-71.9c-13.2-17.2-23.5-36.7-30.1-57.9c-5.4-17.3-8.3-35.8-8.3-54.9c19.8 0 38.9 3.1 56.8 8.9c28.1 9.1 53.4 24.8 73.8 45.2c18.4 18.4 33 40.7 42.4 65.6q1 2.9 2 5.8c6.2 18.4 9.6 38.1 9.7 58.6z"/>
						<path id="&lt;Path&gt;" class="s8" d="m297.4 278.6c-77.9-25.1-127.7-97.3-127.9-175.2c28.1 9.1 53.4 24.8 73.8 45.2c33.3 33.3 54 79.2 54.1 130z"/>
						<path id="&lt;Path&gt;" class="s9" d="m297.4 278.6v0.6c-59.5 0-112.5-28.2-146.3-71.9c-13.2-17.2-23.5-36.7-30.1-57.9c23.5 33.5 75 83.6 164.7 64.8q1 2.9 2 5.8c6.2 18.4 9.6 38.1 9.7 58.6z"/>
					</g>
					<g id="&lt;Group&gt;">
						<path id="&lt;Path&gt;" class="s10" d="m418.9 279.2c0 29.5-12 56.3-31.4 75.7q-1.4 1.4-2.8 2.7c-19.1 17.8-44.7 28.6-72.8 28.6h-14.5v-107z"/>
						<path id="&lt;Path&gt;" class="s11" d="m418.9 279.2c0 29.5-12 56.3-31.4 75.7c-19.3 19.4-46.1 31.3-75.6 31.3h-14.5v-45.8q82.6 10.4 121.5-61.2z"/>
						<path id="&lt;Path&gt;" class="s12" d="m384.7 357.6c-19.1 17.8-44.7 28.6-72.8 28.6h-14.5v-107h20.8c5.9 30.1 22.2 68.1 66.5 78.4z"/>
					</g>
				</g>
			</g>
		</g>
	</g>
</svg>